<?xml version="1.0" encoding="utf-8"?>
<!-- Generator: Adobe Illustrator 16.0.0, SVG Export Plug-In . SVG Version: 6.00 Build 0)  -->
<!DOCTYPE svg PUBLIC "-//W3C//DTD SVG 1.1//EN" "http://www.w3.org/Graphics/SVG/1.1/DTD/svg11.dtd">
<svg version="1.1" id="图层_1" xmlns="http://www.w3.org/2000/svg" xmlns:xlink="http://www.w3.org/1999/xlink" x="0px" y="0px"
	 width="2255.548px" height="521.896px" viewBox="0 0 2255.548 521.896" enable-background="new 0 0 2255.548 521.896"
	 xml:space="preserve">
<g>
	<defs>
		<rect id="SVGID_1_" x="-303.584" y="-958.103" width="2834.65" height="2834.651"/>
	</defs>
	<clipPath id="SVGID_2_">
		<use xlink:href="#SVGID_1_"  overflow="visible"/>
	</clipPath>
	<path clip-path="url(#SVGID_2_)" fill="#050505" d="M1475.418,294.495c30.602,0,55.497-24.896,55.497-55.498v-21.006
		c0-8.559-6.939-15.5-15.5-15.5s-15.5,6.941-15.5,15.5v21.006c0,13.51-10.989,24.498-24.497,24.498h-42.003v-47.504
		c0-9.898-8.1-18-18-18s-18,8.102-18,18v47.504h-42.003c-13.508,0-24.497-10.988-24.497-24.498v-21.006
		c0-8.559-6.939-15.5-15.5-15.5s-15.5,6.941-15.5,15.5v21.006c0,30.602,24.896,55.498,55.497,55.498h42.003v29.998h-40.003
		c-30.602,0-55.497,24.896-55.497,55.496v83.006c0,8.563,6.939,15.5,15.5,15.5s15.5-6.938,15.5-15.5v-83.006
		c0-13.508,10.989-24.496,24.497-24.496h40.003v114.5c0,9.9,8.1,18,18,18s18-8.1,18-18v-114.5h40.003
		c13.508,0,24.497,10.988,24.497,24.496v83.006c0,8.563,6.939,15.5,15.5,15.5s15.5-6.938,15.5-15.5v-83.006
		c0-30.6-24.896-55.496-55.497-55.496h-40.003v-29.998H1475.418z"/>
	<path clip-path="url(#SVGID_2_)" fill="#050505" d="M1514.416,56.492h-159.003c-30.601,0-55.497,24.897-55.497,55.497v65.003
		c0,8.563,6.939,15.5,15.5,15.5s15.5-6.938,15.5-15.5v-65.003c0-13.508,10.989-24.496,24.497-24.496h17.003v86.499
		c0,10.451,8.55,19,19,19s19-8.549,19-19V87.492h34v86.499c0,10.451,8.55,19,19,19s19-8.549,19-19V87.492h32
		c8.561,0,15.5-6.939,15.5-15.5C1529.916,63.431,1522.976,56.492,1514.416,56.492"/>
	<path clip-path="url(#SVGID_2_)" fill="#050505" d="M1540.891,143.413L1540.891,143.413c-4.15-9.59,0.301-20.833,9.892-24.983
		l154.983-67.071c9.59-4.15,20.833,0.301,24.983,9.89c4.149,9.593-0.301,20.833-9.892,24.985l-154.983,67.07
		C1556.284,157.455,1545.041,153.002,1540.891,143.413"/>
	<path clip-path="url(#SVGID_2_)" fill="#050505" d="M1541.891,232.413L1541.891,232.413c-4.15-9.59,0.301-20.834,9.892-24.982
		l154.983-67.072c9.59-4.15,20.833,0.301,24.983,9.892c4.149,9.591-0.301,20.833-9.892,24.983l-154.983,67.07
		C1557.284,246.454,1546.041,242.003,1541.891,232.413"/>
	<path clip-path="url(#SVGID_2_)" fill="#050505" d="M1540.73,319.407L1540.73,319.407c-4.15-9.59,0.3-20.832,9.891-24.982
		l171.146-74.066c9.59-4.15,20.833,0.301,24.983,9.891c4.149,9.592-0.301,20.834-9.892,24.984l-171.146,74.064
		C1556.123,333.45,1544.878,328.997,1540.73,319.407"/>
	<path clip-path="url(#SVGID_2_)" fill="#050505" d="M1544.588,299.343L1544.588,299.343c7.172-7.6,19.259-7.951,26.858-0.779
		l153.11,144.475c7.601,7.174,7.951,19.26,0.779,26.859c-7.172,7.602-19.258,7.951-26.858,0.779l-153.11-144.475
		C1537.767,319.03,1537.417,306.944,1544.588,299.343"/>
	<path clip-path="url(#SVGID_2_)" fill="#030303" d="M2143.912,478.493h-256.996c-10.067,0-18.87-4.969-24.154-13.631
		c-2.645-4.334-4.331-9.375-5.154-15.41c-1.67-12.268,0.564-24.746,6.291-35.139l0,0c3.258-5.912,7.549-11.059,12.754-15.301
		c10.076-8.209,22.144-12.01,32.789-15.361c1.449-0.457,2.888-0.91,4.303-1.369c21.381-6.938,42.379-6.514,59.129,1.197
		c1.712,0.787,3.459,1.637,5.232,2.5c12.53,6.104,17.356,7.592,21.241,4.389c15.634-12.885,33.206-25.51,60.798-26.059
		c9.92-0.199,20.33,0.975,31.801,3.582c19.441,4.42,35.701,11.289,48.326,20.414c17.08,12.346,27.178,28.424,30.012,47.789
		c0.816,5.594,3.307,22.613-6.27,33.691C2160.581,473.759,2154.305,478.493,2143.912,478.493 M1887.37,449.491l254.7,0.002
		c0.172-1.643,0.203-4.512-0.482-9.203c-3.925-26.82-32.658-38.797-56.072-44.119c-9.143-2.078-17.261-3.016-24.794-2.867
		c-16.752,0.334-27.601,6.811-42.932,19.443c-18.926,15.596-39.867,5.398-52.38-0.693c-1.581-0.77-3.139-1.529-4.663-2.23
		c-13.64-6.279-29.694-2.668-38.051,0.043c-1.494,0.484-3.013,0.965-4.546,1.445c-8.56,2.697-17.411,5.484-23.179,10.184
		c-2.31,1.881-4.219,4.176-5.675,6.814c-2.74,4.973-3.789,11.092-2.954,17.229C1886.639,447.716,1887.07,448.894,1887.37,449.491"/>
	<path clip-path="url(#SVGID_2_)" fill="#050505" d="M1018.416,56.492c-9.35,0-17,7.65-17,17v71.499h-44v-83c0-9.349-7.65-17-17-17
		h-2c-9.35,0-17,7.65-17,17v83h-43V73.492c0-9.351-7.65-17-17-17s-17,7.65-17,17v71.499v18c0,9.352,7.65,17,17,17h60v20
		c0,9.352,7.65,17,17,17h2c9.35,0,17-7.648,17-17v-20h61c9.35,0,17-7.648,17-17v-18V73.492
		C1035.416,64.142,1027.766,56.492,1018.416,56.492"/>
	<path clip-path="url(#SVGID_2_)" fill="#050505" d="M1231.416,56.66c-9.35,0-17,7.65-17,17v71.331h-44v-83c0-9.349-7.65-17-17-17
		h-2c-9.35,0-17,7.65-17,17v83h-43V73.66c0-9.351-7.65-17-17-17s-17,7.65-17,17v71.331v18c0,9.352,7.65,17,17,17h60v20
		c0,9.352,7.65,17,17,17h2c9.35,0,17-7.648,17-17v-20h61c9.35,0,17-7.648,17-17v-18V73.66
		C1248.416,64.31,1240.765,56.66,1231.416,56.66"/>
	<path clip-path="url(#SVGID_2_)" fill="#050505" d="M1195.416,227.491h-298c-30.603,0-55.5,24.898-55.5,55.5v60.002
		c0,8.561,5.939,15.5,14.5,15.5s16.5-6.939,16.5-15.5v-60.002c0-13.508,10.991-24.5,24.5-24.5h131v39.502h-107.5
		c-9.625,0-17.5,7.875-17.5,17.5s7.875,17.5,17.5,17.5h107.5v37.5H919.249c-30.511,0-55.333,24.822-55.333,55.334v37.332
		c0,8.563,6.939,15.5,15.5,15.5s15.5-6.938,15.5-15.5v-37.332c0-13.418,10.916-24.334,24.333-24.334h109.167v68.5
		c0,9.9,8.1,18,18,18s18-8.1,18-18v-68.5h109.166c13.418,0,24.334,10.916,24.334,24.334v37.332c0,8.563,6.939,15.5,15.5,15.5
		s15.5-6.938,15.5-15.5v-37.332c0-30.512-24.822-55.334-55.334-55.334h-109.166v-37.5h110.5c9.625,0,17.5-7.875,17.5-17.5
		s-7.875-17.5-17.5-17.5h-110.5v-39.502h131c13.51,0,24.5,10.992,24.5,24.5v60.002c0,8.561,6.939,15.5,15.5,15.5
		s15.5-6.939,15.5-15.5v-60.002C1250.916,252.39,1226.018,227.491,1195.416,227.491"/>
	<path clip-path="url(#SVGID_2_)" fill="#050505" d="M2211.916,53.992h-397c-10.175,0-18.5,8.326-18.5,18.5v2
		c0,10.174,8.325,18.5,18.5,18.5h180.5v23.5h-134.003c-30.601,0-55.497,24.896-55.497,55.497v291.006c0,8.561,6.939,15.5,15.5,15.5
		s15.5-6.939,15.5-15.5V171.989c0-13.509,10.989-24.498,24.497-24.498h134.003v129.5h-127.5c-9.625,0-17.5,7.875-17.5,17.502
		c0,9.625,7.875,17.5,17.5,17.5h137.313h8.188h8.188h137.313c9.625,0,17.5-7.875,17.5-17.5c0-9.627-7.875-17.502-17.5-17.502h-127.5
		v-129.5h134.003c13.508,0,24.497,10.989,24.497,24.498v291.006c0,8.561,6.939,15.5,15.5,15.5s15.5-6.939,15.5-15.5V171.989
		c0-30.602-24.896-55.497-55.497-55.497h-134.003v-23.5h180.5c10.175,0,18.5-8.326,18.5-18.5v-2
		C2230.416,62.317,2222.09,53.992,2211.916,53.992"/>
	<path clip-path="url(#SVGID_2_)" fill="#050505" d="M2158.916,360.993h-291c-9.625,0-17.5-7.875-17.5-17.5s7.875-17.5,17.5-17.5
		h291c9.625,0,17.5,7.875,17.5,17.5S2168.541,360.993,2158.916,360.993"/>
	<path clip-path="url(#SVGID_2_)" fill="#7A7AAC" d="M350.416,469.911c0,0,34.999,1,52.999-4
		c20.512-5.695,40.181-12.404,58.712-23.146c25.558-14.814,48.231-36.158,66.826-59.121c27.81-34.338,40.811-78.346,43.983-121.893
		c3.351-45.988-2.322-90.1-30.417-128.004c-0.558-0.752-1.122-1.502-1.691-2.244c-34.994-45.716-91.465-74.432-149.412-71.592
		c-29.96,1.469-59.298,11.021-84.944,26.458c-25.052,15.082-46.926,35.91-62.19,60.929c-14.648,24.012-22.874,52.012-21.039,80.246
		c3.201,49.242,43.522,101.1,91.07,115.098c15.794,4.65,32.9,5.857,49.073,2.512c16.778-3.473,30.62-12.078,41.425-25.332
		c18.444-22.621,28.66-59.299,4.352-81.748c-6.536-6.035-14.882-10.252-23.748-11.162c-12.166-1.25-20.418,2.809-27.999,11
		c7.292-3.459,19.067,0.834,23.382,3.623c5.778,3.732,8.864,10.395,9.895,17.115c1.951,12.721-3.346,28.402-15.918,33.74
		c-11.138,4.73-25.206,3.32-36.061-1.586c-23.121-10.451-29.493-46.428-17.251-66.699c6.701-11.096,17.739-19.047,29.591-23.902
		c25.403-10.41,54.565-5.584,77.427,8.771c24.267,15.236,38.401,39.617,43.113,67.563c6.151,36.484,3.779,79.729-15.483,112.09
		c-16.701,28.061-46.103,51.449-74.208,67.309C371.958,461.546,361.584,467.204,350.416,469.911"/>
	<path clip-path="url(#SVGID_2_)" fill="#B3B3B3" d="M639.961,340.198c-7.713,3.422-17.06,4.654-24.826,0.709
		c-7.556-3.842-9.111-13.563-7.7-21.232c3.147-17.111,27.876-25.398,46.73-16.277c27.52,13.314,24.703,52.266,15.076,76.018
		c-11.951,29.484-34.326,46.484-63.826,60.984c-21.683,10.656-36.208,17.207-60.889,25.156c-4.147,1.338-8.779,2.811-13.051,4.018
		c14.055,0,21.851-0.018,35.938-0.018c15.752,0,57.863-6.059,84.75-14.006c44.418-13.131,82.923-43.109,96.758-88.48
		c7.681-25.191,5.049-51.977-7.84-74.998c-21.21-37.883-70.296-54.568-111.177-42.174c-22.925,6.951-43.658,25.723-50.827,48.857
		c-7.348,23.713,5.009,60.119,33.016,63.422c17.132,2.021,27.771-5.455,33.648-17.648c1.418-2.941,2.246-6.885,2.734-9.957
		c-1.004,1.004-3.515,2.916-4.143,3.309c-1.36,0.852-2.78,1.605-4.243,2.262C640.046,340.161,640.003,340.181,639.961,340.198"/>
	<path clip-path="url(#SVGID_2_)" fill="#BF84AF" d="M229.44,470.774c0.031-0.42,0.268-0.9,0.395-1.307
		c0.14-0.445,0.279-0.891,0.419-1.338c0.295-0.943,0.604-1.885,0.854-2.838c0.419-1.596,0.756-3.217,1.119-4.826
		c0.749-3.322,1.473-6.652,2.084-10.004c0.391-2.148,0.736-4.305,1.007-6.473c2.392-12.953,3.233-26.186,1.963-39.314
		c-0.766-7.926-2.361-15.799-5.142-23.273c-6.01-16.152-18.976-29.979-33.636-38.727c-33.559-20.029-91.944-3.221-94.169,41.586
		c-0.885,17.822,10.331,40.152,32.013,41.615c8.261,0.557,17.313-3.109,23.55-9.635c1.978-2.07,9.402-9.637,8.494-19.672
		c-1.101-12.156-5.851-22.281-23.481-18.859c0,0,5.443-11.611,23.568-10.047c10.92,0.939,24.598,13.959,24.598,38.945
		c0,8.563,0,21.406-8.563,35.322c-21.126,34.33-69.41,36.672-102.663,20.369c-26.001-12.746-45.346-36.291-53.207-64.117
		c-9.152-32.393-1.035-59.379,1.918-68.135c2.07-6.141,10.681-29.969,34.072-50.813c7.625-6.795,36.312-31.57,79.102-31.213
		c9.468,0.08,31.495,1.656,54.607,14.732c39.545,22.373,60.439,65.373,60.738,109.916c0.146,21.777-6.17,43-13.131,63.723
		c-0.377,1.121-0.773,2.234-1.181,3.344c-0.453,1.232-0.922,2.457-1.403,3.678c-0.513,1.301-1.04,2.598-1.58,3.889
		c-0.557,1.334-1.129,2.664-1.713,3.988c-0.587,1.33-1.187,2.654-1.801,3.971c-0.601,1.287-1.215,2.568-1.847,3.84
		c-0.598,1.207-1.212,2.406-1.846,3.594c-0.855,1.6-1.746,3.182-2.702,4.723c-0.384,0.617-0.781,1.227-1.197,1.824
		c-0.208,0.299-0.421,0.594-0.639,0.885c-0.112,0.146-0.231,0.289-0.359,0.424C229.607,470.63,229.522,470.704,229.44,470.774"/>
	<path clip-path="url(#SVGID_2_)" fill="#050505" d="M1969.916,200.991h-107c-8.525,0-15.5-6.975-15.5-15.5
		c0-8.523,6.975-15.5,15.5-15.5h107c8.525,0,15.5,6.977,15.5,15.5C1985.416,194.017,1978.441,200.991,1969.916,200.991"/>
	<path clip-path="url(#SVGID_2_)" fill="#050505" d="M2163.916,200.991h-107c-8.525,0-15.5-6.975-15.5-15.5
		c0-8.523,6.975-15.5,15.5-15.5h107c8.525,0,15.5,6.977,15.5,15.5C2179.416,194.017,2172.441,200.991,2163.916,200.991"/>
	<path clip-path="url(#SVGID_2_)" fill="#050505" d="M2163.916,251.991h-107c-8.525,0-15.5-6.975-15.5-15.5
		c0-8.523,6.975-15.5,15.5-15.5h107c8.525,0,15.5,6.977,15.5,15.5C2179.416,245.017,2172.441,251.991,2163.916,251.991"/>
	<path clip-path="url(#SVGID_2_)" fill="#050505" d="M1969.916,251.991h-107c-8.525,0-15.5-6.975-15.5-15.5
		c0-8.523,6.975-15.5,15.5-15.5h107c8.525,0,15.5,6.977,15.5,15.5C1985.416,245.017,1978.441,251.991,1969.916,251.991"/>
	<rect x="1228.416" y="437.993" clip-path="url(#SVGID_2_)" fill="#A67C52" width="1" height="1"/>
</g>
</svg>
